<?xml version="1.0" encoding="utf-8"?>
<!-- Generator: Adobe Illustrator 25.0.0, SVG Export Plug-In . SVG Version: 6.00 Build 0)  -->
<svg version="1.1" id="Layer_1" xmlns="http://www.w3.org/2000/svg" xmlns:xlink="http://www.w3.org/1999/xlink" x="0px" y="0px"
	 viewBox="0 0 24 30.31" style="enable-background:new 0 0 24 30.31;" xml:space="preserve">
<style type="text/css">
	.st0{fill:#9F1C3B;}
</style>
<g>
	<path class="st0" d="M23.97,7.8c0,1.61-0.01,3.21-0.01,4.82c0,3.58,0,7.15,0,10.73c0,0.12,0.01,0.25,0.01,0.37
		c-0.01,0.27-0.03,0.53,0.02,0.8c0,0.59,0.01,1.18-0.09,1.75c-0.1,0.52-0.3,1-0.6,1.45c-0.23,0.36-0.5,0.69-0.77,1.02
		c-0.51,0.62-1.17,0.99-1.92,1.24c-0.65,0.22-1.31,0.33-1.99,0.32c-4.55,0-9.09,0-13.64,0c-0.94,0-1.79-0.32-2.58-0.8
		c-0.76-0.46-1.31-1.11-1.77-1.86C0.17,26.89,0,26.08,0,25.21c0.01-6.32,0.01-12.63,0.01-18.95c0-0.52-0.01-1.03,0-1.55
		c0.01-0.23,0.07-0.45,0.14-0.67c0.18-0.55,0.32-1.11,0.68-1.58c0.2,0.06,0.17-0.13,0.24-0.22L1.07,2.24
		c0.04,0.01,0.05-0.02,0.05-0.05L1.12,2.19c0.06-0.03,0.12-0.06,0.1-0.15L1.21,2.05C1.26,2.06,1.27,2.04,1.26,2L1.26,2
		C1.3,2.01,1.31,1.99,1.31,1.95c0,0-0.01,0.01-0.01,0.01c0.07-0.05,0.15-0.09,0.14-0.19L1.44,1.77c0.09-0.01,0.14-0.05,0.15-0.15
		c0,0-0.01,0.01-0.01,0.01c0.06,0.02,0.06-0.01,0.05-0.05L1.63,1.59c0.08-0.01,0.14-0.05,0.14-0.14c0.02,0,0.03-0.01,0.05-0.01
		C1.81,1.41,1.81,1.4,1.8,1.38c0.02,0,0.03,0,0.05,0c0-0.02,0-0.03,0-0.05c0.02,0.03,0.05,0.02,0.08,0c0.01,0,0-0.02,0.01-0.03
		C1.91,1.32,1.88,1.33,1.86,1.34C1.84,1.36,1.82,1.37,1.81,1.39C1.8,1.41,1.79,1.43,1.77,1.45C1.73,1.46,1.69,1.52,1.63,1.46
		c0.26-0.23,0.51-0.47,0.81-0.64c0.01,0.01,0.02,0.02,0.03,0.04C2.46,0.87,2.45,0.9,2.44,0.92c0.06,0,0.11-0.01,0.12-0.09L2.56,0.84
		C2.6,0.85,2.65,0.86,2.65,0.78c0.01,0,0.03,0,0.04,0.01c0-0.01,0-0.02,0-0.03C2.67,0.77,2.66,0.78,2.65,0.79
		c-0.03,0-0.05,0.01-0.08,0.01C2.56,0.79,2.55,0.78,2.54,0.77c0.1-0.06,0.19-0.14,0.31-0.17c0.02,0.06-0.04,0.07-0.07,0.09
		c0.01,0.01-0.04,0.03,0,0.04c0-0.01,0-0.03-0.01-0.04c0.06,0.02,0.1,0,0.14-0.04C2.89,0.63,2.87,0.62,2.84,0.61
		c0.15-0.21,0.4-0.23,0.61-0.31c0.57-0.2,1.16-0.32,1.77-0.29c0.8,0.03,1.61,0,2.41,0.04c0.49,0.03,0.99-0.01,1.48-0.02
		c2.23-0.01,4.47-0.02,6.7-0.03c0.5,0,0.43-0.06,0.43,0.43c0,1.22-0.01,2.44,0,3.67c0.01,0.74,0.19,1.44,0.67,2.02
		c0.55,0.67,1.23,1.14,2.1,1.31c0.79,0.15,1.59,0.08,2.38,0.08c0.02,0,0.03,0,0.05,0c0.06,0,0.12,0,0.19,0c0.62,0,1.24,0,1.85,0
		c0.03,0,0.06,0,0.09,0c0.02,0,0.03,0,0.05,0c0.11,0.06,0.29-0.1,0.37,0.1C23.95,7.67,23.96,7.73,23.97,7.8z M2.05,1.21
		C2.06,1.2,2.08,1.19,2.09,1.18c-0.01,0-0.01-0.01-0.02-0.01C2.06,1.19,2.06,1.2,2.05,1.21C2.04,1.22,2.02,1.22,2,1.23
		c0,0.01,0.01,0.01,0.01,0.02C2.03,1.24,2.04,1.22,2.05,1.21z M3,0.54c0.09,0.05,0.16,0,0.22-0.07C3.15,0.5,3.08,0.52,3,0.54
		c0,0.02,0,0.03-0.01,0.04c0,0,0.01,0,0.01,0C3.01,0.58,3,0.56,3,0.54z M4.18,16.24c-0.15,0.14-0.12,0.3-0.06,0.46
		c0.11,0.28,0.35,0.42,0.75,0.4c0.44-0.02,0.87-0.01,1.31-0.08c0.28,0,0.57,0,0.9,0c-0.21-0.07-0.38-0.09-0.54-0.09
		c-0.18-0.01-0.3-0.1-0.39-0.25c-0.3-0.49-0.88-0.83-1.49-0.73C4.46,16,4.29,16.06,4.18,16.24z M14.94,18.47
		c-0.05-0.12-0.17-0.16-0.28-0.17c-0.17-0.03-0.35-0.04-0.53-0.05c-1.05-0.08-2.1-0.05-3.15-0.05c-2.05,0-4.09,0.01-6.14,0.01
		c-0.32,0-0.57,0.1-0.72,0.4c-0.15,0.15-0.08,0.31,0.01,0.45c0.15,0.24,0.39,0.3,0.66,0.3c2.06-0.01,4.12-0.06,6.19-0.03
		c1.24,0.02,2.49,0.03,3.73,0.02c0.47,0,0.59-0.2,0.4-0.64C15.08,18.62,15.03,18.53,14.94,18.47z M18.16,21.36
		c0.07-0.16,0.04-0.31-0.07-0.42c-0.19-0.19-0.4-0.34-0.69-0.38c-0.38-0.05-0.75-0.07-1.13-0.08c-2.72-0.03-5.43-0.05-8.15-0.03
		c-0.85,0.01-1.7,0.01-2.55,0.01c-0.31,0-0.62,0-0.93,0.02c-0.41,0.02-0.66,0.33-0.59,0.69c0.06,0.28,0.23,0.45,0.5,0.46
		c0.28,0.01,0.57,0,0.86,0c3.5,0,7,0,10.5,0c0.64,0,1.28,0.03,1.92-0.04C17.98,21.57,18.11,21.53,18.16,21.36z M18.7,22.98
		c-0.1-0.13-0.24-0.18-0.4-0.19c-0.32-0.03-0.65-0.04-0.97-0.04c-4.11,0-8.21,0-12.32,0c-0.19,0-0.37,0.01-0.55,0.05
		c-0.3,0.07-0.51,0.44-0.41,0.74c0.11,0.36,0.38,0.42,0.72,0.42c4.46-0.01,8.92-0.01,13.38-0.01c0.09,0,0.19-0.01,0.28-0.02
		c0.26-0.03,0.43-0.18,0.5-0.41C19,23.29,18.86,23.12,18.7,22.98z M18.71,25.34c-0.18-0.24-0.43-0.27-0.7-0.27
		c-4.14,0-8.28,0-12.42,0c-0.29,0-0.58,0.02-0.87,0.02c-0.41,0-0.72,0.22-0.73,0.62c-0.02,0.08,0.02,0.15,0.05,0.22
		c0.16,0.3,0.42,0.34,0.72,0.34c3.82-0.05,7.65,0.03,11.47-0.04c0.69-0.01,1.37,0,2.06,0.03c0.27,0.01,0.45-0.12,0.55-0.37
		C18.94,25.67,18.9,25.49,18.71,25.34z M3.31,9.38c-0.02,0.66,0.11,1.3,0.3,1.93c0.15,0.5,0.32,1,0.59,1.44
		c0.38,0.6,0.83,1.13,1.38,1.59c1.28,1.07,2.76,1.62,4.42,1.7c1.05,0.05,2.03-0.26,3-0.64c0.19-0.07,0.24-0.05,0.23,0.15
		c-0.01,0.11,0.01,0.23,0.01,0.35c0,0.29,0.12,0.52,0.34,0.73c1.17,1.11,2.32,2.23,3.55,3.28c0.38,0.32,0.72,0.71,1.28,0.78
		c0.68,0.09,1.34,0.09,1.95-0.25c0.68-0.39,0.98-1.03,1.16-1.76c0.2-0.81,0.02-1.47-0.6-2.09c-1.12-1.14-2.3-2.23-3.37-3.41
		c-0.31-0.34-0.66-0.53-1.11-0.58c-0.31-0.04-0.3-0.05-0.18-0.34c0.66-1.52,0.82-3.09,0.43-4.7c-0.17-0.73-0.45-1.42-0.92-2.02
		c-0.53-0.68-1.12-1.3-1.85-1.78c-0.63-0.42-1.31-0.74-2.06-0.91c-0.02-0.01-0.05-0.04-0.07-0.04c-0.9-0.25-1.82-0.28-2.72-0.12
		C6.69,3.09,4.93,4.32,3.92,6.54C3.51,7.44,3.28,8.38,3.31,9.38z M3.34,0.44c0,0.01,0.01,0.02,0.01,0.03
		c0.11-0.04,0.21-0.07,0.32-0.11c0-0.01-0.01-0.02-0.01-0.02C3.55,0.37,3.44,0.4,3.34,0.44z"/>
	<path class="st0" d="M19.13,6.31c-0.18-0.13-0.4-0.18-0.58-0.31c-0.69-0.48-1.1-1.1-1.09-1.97c0-1.14,0-2.27-0.01-3.41
		c0-0.18-0.02-0.35-0.04-0.57c0.3,0.26,0.58,0.48,0.85,0.73c1.4,1.31,2.8,2.62,4.16,3.96c0.47,0.46,0.93,0.92,1.41,1.38
		C23.9,6.2,23.98,6.26,24,6.37C22.38,6.29,20.75,6.34,19.13,6.31z"/>
	<path class="st0" d="M1.11,2.08c0.04-0.09,0.1-0.17,0.18-0.23C1.3,1.86,1.31,1.86,1.32,1.87c0,0.03-0.01,0.06-0.01,0.09
		c0,0,0.01-0.01,0.01-0.01C1.27,1.95,1.26,1.97,1.26,2C1.26,2,1.26,2,1.26,2C1.23,2,1.22,2.02,1.21,2.05c0,0,0.01-0.01,0.01-0.01
		C1.19,2.06,1.16,2.08,1.12,2.1C1.12,2.09,1.11,2.08,1.11,2.08z"/>
	<path class="st0" d="M1.08,2.23c-0.02,0-0.03,0-0.05,0.01C1,2.15,1.07,2.12,1.11,2.08C1.11,2.08,1.12,2.09,1.12,2.1
		c0,0.03,0,0.06,0,0.09c0,0,0.01-0.01,0.01-0.01C1.09,2.18,1.08,2.2,1.08,2.23L1.08,2.23z"/>
	<path class="st0" d="M1.63,1.46c0.07,0.04,0,0.08,0,0.12c0,0,0.01-0.01,0.01-0.01c-0.03,0-0.05,0.02-0.05,0.05
		c0,0,0.01-0.01,0.01-0.01c-0.04,0-0.08,0.08-0.12,0C1.52,1.57,1.58,1.52,1.63,1.46z"/>
	<path class="st0" d="M1.45,1.65c0.08,0.04,0,0.08,0,0.12c0,0,0.01-0.01,0.01-0.01C1.44,1.77,1.42,1.78,1.41,1.77
		C1.4,1.76,1.38,1.75,1.37,1.74C1.4,1.71,1.42,1.68,1.45,1.65z"/>
	<path class="st0" d="M2.45,0.82C2.48,0.8,2.51,0.78,2.54,0.77C2.55,0.78,2.56,0.79,2.57,0.8c0,0.02,0,0.03-0.01,0.04
		c0,0,0.01-0.01,0.01-0.01c-0.03,0-0.06,0.01-0.09,0.01C2.47,0.84,2.46,0.83,2.45,0.82z"/>
	<path class="st0" d="M1.33,1.79c0.01-0.02,0.03-0.03,0.04-0.05C1.38,1.75,1.4,1.76,1.41,1.77c0,0.03-0.01,0.05-0.04,0.05
		C1.35,1.81,1.34,1.8,1.33,1.79z"/>
	<path class="st0" d="M1.29,1.85c0.01-0.02,0.02-0.04,0.04-0.06C1.34,1.8,1.35,1.81,1.36,1.82c0,0.03-0.01,0.05-0.04,0.05
		C1.31,1.86,1.3,1.86,1.29,1.85z"/>
	<path class="st0" d="M1.03,2.23c0,0.04-0.01,0.07-0.06,0.05C0.99,2.26,0.98,2.21,1.03,2.23z"/>
	<path class="st0" d="M15.39,10.26c-0.01,0.05-0.01,0.09-0.02,0.14c-0.03,0.11-0.05,0.23-0.08,0.34c-0.38,1.26-1.09,2.29-2.2,3.03
		c-0.37,0.24-0.77,0.41-1.17,0.58c-0.28,0.08-0.56,0.15-0.83,0.23c-0.52,0.06-1.04,0.16-1.56,0.06c-0.26-0.05-0.53-0.1-0.79-0.15
		c-1.23-0.33-2.25-0.99-2.99-2.04c-1.08-1.51-1.36-3.16-0.7-4.92c0.67-1.77,1.93-2.95,3.77-3.39c1.53-0.36,3.01-0.15,4.34,0.78
		c1.22,0.86,1.97,2.02,2.25,3.48c0.04,0.23,0.05,0.48,0.07,0.71C15.45,9.49,15.42,9.88,15.39,10.26z M8.92,11.56
		c-0.02-0.01-0.03-0.02-0.05-0.04c-0.41-0.3-0.69-0.69-0.84-1.18C7.84,9.68,7.84,9.02,8.02,8.36c0.14-0.53,0.45-0.92,0.91-1.2
		c0.37-0.22,0.78-0.28,1.2-0.28c0.59,0,1.1,0.19,1.47,0.69c0.16,0.21,0.27,0.42,0.35,0.67c0.02,0.07,0.05,0.14,0.16,0.12
		c0.51-0.13,1.03-0.24,1.53-0.4c0.12-0.04,0.12-0.08,0.08-0.18c-0.27-0.7-0.71-1.26-1.31-1.69C12.38,6.05,12.36,6.02,12.32,6
		c-0.8-0.46-1.66-0.68-2.59-0.6C8.97,5.46,8.26,5.69,7.64,6.17C6.92,6.74,6.54,7.49,6.37,8.38c-0.15,0.79-0.21,1.57,0.09,2.34
		c0.01,0.03,0.01,0.06,0.02,0.09c0.01,0.02,0.02,0.04,0.02,0.06c0.18,0.73,0.62,1.3,1.22,1.7c1.36,0.89,2.78,0.94,4.25,0.25
		c0.93-0.44,1.45-1.18,1.77-2.11c0.02-0.06,0.09-0.15-0.05-0.17c-0.51-0.09-1.03-0.18-1.54-0.28c-0.09-0.02-0.11,0.02-0.13,0.1
		c-0.13,0.43-0.35,0.8-0.68,1.1c-0.02,0.01-0.03,0.03-0.05,0.04c-0.01,0.01-0.03,0.02-0.04,0.03C10.47,11.94,9.7,12.03,8.92,11.56
		L8.92,11.56z"/>
	<path class="st0" d="M18.52,19.51c-0.42-0.01-0.67-0.33-0.94-0.58c-0.56-0.52-1.09-1.07-1.64-1.6c-0.26-0.25-0.53-0.48-0.79-0.71
		c-0.06-0.06-0.12-0.12-0.18-0.18c-0.13-0.13-0.12-0.25,0.05-0.35c0.51-0.31,0.92-0.72,1.3-1.17c0.18-0.22,0.47-0.32,0.68-0.51
		c0.06-0.05,0.11-0.01,0.17,0.02c0.11,0.06,0.19,0.15,0.28,0.24c0.9,0.9,1.8,1.8,2.7,2.7c0.1,0.1,0.18,0.21,0.2,0.35
		C20.41,18.64,19.69,19.77,18.52,19.51z"/>
	<path class="st0" d="M14.67,15.26c-0.02,0.01-0.04,0.03-0.06,0.04c-0.13,0.06-0.24,0.26-0.4,0.15c-0.17-0.13-0.2-0.54-0.06-0.7
		c0.25-0.3,0.51-0.6,0.77-0.89c0.21-0.24,0.42-0.46,0.65-0.71c0.13,0.12,0.26,0.25,0.39,0.37c0.15,0.14,0.19,0.27,0.01,0.41
		c0,0,0,0,0,0c-0.02,0.02-0.03,0.03-0.05,0.05c-0.11,0.04-0.19,0.13-0.27,0.21C15.31,14.53,15.03,14.94,14.67,15.26z"/>
</g>
</svg>
